<svg width="20" height="14" viewBox="0 0 20 14" fill="none" xmlns="http://www.w3.org/2000/svg">
<path fill-rule="evenodd" clip-rule="evenodd" d="M5.25 -0.00012207C7.32107 -0.00012207 9 1.67881 9 3.74988C9 4.95243 8.43395 6.02278 7.55376 6.70901L7.498 6.74988L7.55376 6.79074C8.38505 7.43885 8.93614 8.42958 8.9948 9.55072L9 9.74988C9 11.7541 7.42764 13.3912 5.44916 13.4947L5.25 13.4999H0.75C0.370304 13.4999 0.056509 13.2177 0.00684662 12.8516L0 12.7499L0 6.74988L0 0.749878C0 0.370182 0.282154 0.056387 0.648229 0.00672455L0.75 -0.00012207L5.25 -0.00012207ZM1.5 7.49988V11.9999H5.25C6.44086 11.9999 7.41564 11.0747 7.49481 9.90393L7.5 9.74988C7.5 8.55901 6.57484 7.58423 5.40405 7.50507L5.25 7.49988H1.5ZM5.28014 6.00047C5.27014 6.00008 5.2601 5.99988 5.25 5.99988H1.5V1.49988H5.25L5.40405 1.50507C6.57484 1.58423 7.5 2.55901 7.5 3.74988C7.5 4.94074 6.57484 5.91552 5.40405 5.99469L5.28014 6.00047ZM19.5 7.74988C19.5 5.40267 17.5972 3.49988 15.25 3.49988C12.9028 3.49988 11 5.40267 11 7.74988V9.74988L11.007 9.85224L11.0405 10.0581C11.3727 11.827 12.7896 13.2045 14.5843 13.4748C16.4481 13.7555 18.2741 12.7751 19.0699 11.0665C19.2448 10.691 19.0821 10.2449 18.7067 10.07C18.3312 9.89512 17.885 10.0577 17.7101 10.4332C17.1952 11.5388 16.0137 12.1731 14.8077 11.9915L14.6289 11.9585C13.5684 11.7267 12.7422 10.8901 12.5237 9.82677L12.5 9.69288V8.49988H18.75L18.8518 8.49303C19.2178 8.44337 19.5 8.12957 19.5 7.74988ZM12.6207 6.94169C12.9659 5.81731 14.0125 4.99988 15.25 4.99988L15.4175 5.0049C16.5812 5.07482 17.5498 5.86842 17.8793 6.94169L17.895 6.99988H12.604L12.6207 6.94169ZM17.5 0.749878C17.5 0.335664 17.1642 -0.00012207 16.75 -0.00012207L13.75 -0.00012207L13.6482 0.00672455C13.2822 0.056387 13 0.370182 13 0.749878C13 1.16409 13.3358 1.49988 13.75 1.49988H16.75L16.8518 1.49303C17.2178 1.44337 17.5 1.12957 17.5 0.749878Z" fill="#212121"/>
</svg>
