<svg width="22" height="18" viewBox="0 0 22 18" fill="none" xmlns="http://www.w3.org/2000/svg">
<path fill-rule="evenodd" clip-rule="evenodd" d="M19.6776 5.37122L19.6825 4.88048L19.6874 4.94648C19.6894 4.95926 19.6917 4.96177 19.6936 4.96104L20.0487 4.25338L20.502 3.36804L20.7854 2.79294L20.9104 2.52795C21.1495 2.01258 21.3226 1.58394 21.4297 1.22383L21.4525 1.13848L21.459 1.12476C21.6187 0.680445 21.3294 0.112476 20.7505 0.112476L20.6392 0.120732L20.5324 0.144798L20.4215 0.188983C20.2328 0.281427 20.0384 0.365618 19.8322 0.444845L19.3937 0.60057L19.0186 0.717586L18.5404 0.853528L17.9685 1.01048L17.8465 0.903758C16.5936 -0.130118 14.8887 -0.253492 13.1085 0.413103L12.9002 0.496375C11.1876 1.22528 10.0642 2.81989 10.0037 4.64294L10.0015 5.09048L9.82045 5.08122C7.21875 4.88988 4.91633 3.58792 3.3613 1.41588C3.04182 0.969632 2.36695 1.0064 2.09783 1.48472L2.00546 1.66069L1.95771 1.75755C1.258 3.20407 0.796605 4.96884 0.965948 6.8281L0.994488 7.09257C1.27935 9.37216 2.54176 11.3242 4.9406 12.766L5.20648 12.9205L5.03363 13.0173C3.5632 13.8102 2.2369 14.1597 0.780648 14.103C-0.0116024 14.0722 -0.303611 15.1316 0.39255 15.511C3.93562 17.4421 7.73172 18.0369 10.9946 17.0897C14.9733 15.9339 17.9997 12.9555 19.1585 8.83031C19.4701 7.69966 19.644 6.53909 19.6776 5.37122ZM17.1902 2.34989C17.3831 2.56767 17.6847 2.65416 17.9638 2.57181L19.1342 2.2452L19.4235 2.16148L19.2461 2.52632L18.4169 4.15154L18.316 4.36071C18.2188 4.57203 18.1892 4.68133 18.1842 4.81925L18.1835 4.8805C18.1901 6.07778 18.032 7.27216 17.7134 8.42825C16.6977 12.044 14.0638 14.6361 10.5763 15.6493L10.2683 15.7329C8.32323 16.2249 6.14591 16.1042 3.95507 15.4134L3.51448 15.2665L3.7669 15.192C4.87082 14.8419 5.97487 14.271 7.16727 13.4767C7.66131 13.1476 7.59536 12.4022 7.0512 12.165C4.05076 10.8569 2.66795 8.97779 2.45976 6.69204L2.4378 6.36241C2.3958 5.37519 2.56557 4.40556 2.85563 3.52688L2.94248 3.27748L2.97849 3.31945C4.97884 5.49347 7.74678 6.67957 10.7707 6.60223C11.1773 6.59183 11.5015 6.25922 11.5015 5.85248V4.85248C11.483 3.49672 12.3196 2.31021 13.6345 1.81785C15.1153 1.26336 16.3766 1.43183 17.1902 2.34989Z" fill="#212121"/>
</svg>
